<svg xmlns="http://www.w3.org/2000/svg" viewBox="-15 -25 45 45" width="500" height="500">
  <defs>
    <style>
      .body-hunch {
        transform-origin: 7.5px 15px;
        animation: hunch-walk 2s infinite alternate ease-in-out;
      }
      .magnifying-glass {
        transform-origin: 14px 10px; /* Pivot at the right shoulder */
        animation: search-glass 3s infinite ease-in-out;
      }
      .leg-1 { animation: sneak-1 0.5s infinite linear; transform-origin: top center; transform-box: fill-box; }
      .leg-2 { animation: sneak-2 0.5s infinite linear; transform-origin: top center; transform-box: fill-box; }
      .shadow-sneak {
        transform-origin: 7.5px 15.5px;
        animation: shadow-shift 2s infinite alternate ease-in-out;
      }
      
      /* Sneaking forward and backward */
      @keyframes hunch-walk {
        0% { transform: translate(-2px, 1px) rotate(2deg); }
        100% { transform: translate(3px, 1px) rotate(2deg); }
      }
      @keyframes shadow-shift {
        0% { transform: translateX(-2px) scale(0.9); opacity: 0.4; }
        100% { transform: translateX(3px) scale(0.9); opacity: 0.4; }
      }
      
      /* Hovering the magnifying glass over the eye */
      @keyframes search-glass {
        0%, 100% { transform: rotate(0deg) scale(1); }
        50% { transform: rotate(-3deg) scale(1.05); }
      }
      
      /* Fast tiptoe / sneak leg movement */
      @keyframes sneak-1 {
        0%, 100% { transform: rotate(0deg) scaleY(1); }
        50% { transform: rotate(-25deg) scaleY(0.7); }
      }
      @keyframes sneak-2 {
        0%, 100% { transform: rotate(-25deg) scaleY(0.7); }
        50% { transform: rotate(0deg) scaleY(1); }
      }

      .breathe-anim {
        transform-origin: 7.5px 13px;
        animation: breathe 3.2s infinite ease-in-out;
      }
      #eyes-js, #body-js, #shadow-js {
        transition: transform 0.2s ease-out;
      }
      #shadow-js {
        transform-origin: 7.5px 15px;
      }
      @keyframes breathe {
        0%, 100% { transform: scale(1, 1) translate(0, 0); }
        50% { transform: scale(1.02, 0.98) translate(0, 0.5px); }
      }
    </style>
  </defs>

  <g id="shadow-js">
    <rect id="ground-shadow" class="shadow-sneak" x="3" y="15" width="9" height="1" fill="#000000" opacity="0.5"/>
  </g>
  
  <g id="body-js" class="body-hunch">
    <g class="breathe-anim">

      <!-- Tail -->
      <rect x="1" y="7" width="2" height="5" fill="#C46A0A"/>
      <rect x="-1" y="7" width="2" height="5" fill="#C46A0A"/>
      <rect x="0" y="8" width="3" height="5" fill="#C46A0A"/>
      <rect x="-1" y="6" width="2" height="3" fill="#FAEBD7"/>

      <!-- Left Ear -->
      <rect x="3" y="4" width="1" height="2" fill="#E8710A"/>
      <rect x="4" y="4.5" width="1" height="2" fill="#E8710A"/>
      <rect x="5" y="5" width="1.3" height="1" fill="#E8710A"/>
      <polygon points="3,4 4,3 6.5,6" fill="#E8710A"/>
      <polygon points="4,6 4,4.5 5,6" fill="#FAEBD7"/>

      <!-- Right Ear -->
      <rect x="9" y="5" width="1" height="1" fill="#E8710A"/>
      <rect x="10" y="3" width="1" height="3" fill="#E8710A"/>
      <rect x="11" y="4" width="1" height="2" fill="#E8710A"/>
      <polygon points="11,3 11,4 12,4" fill="#E8710A"/>
      <polygon points="8,6 10,6 10,3" fill="#E8710A"/>
      <polygon points="11,4 12,4 11,5" fill="#E8710A"/>
      <polygon points="10,6 11,6 10.5,4" fill="#FAEBD7"/>

      <!-- Body Base Color Group -->
      <g id="body-color-group" fill="#E8710A">
        <!-- Legs -->
        <rect class="leg-1" x="4" y="13" width="2" height="2"/>
        <rect class="leg-2" x="9" y="13" width="2" height="2"/>

        <rect id="torso" x="3" y="6" width="9" height="7"/>
        <!-- Left arm tucked back slightly -->
        <rect id="left-arm" x="1" y="9" width="2" height="2" transform="translate(1, -1) rotate(15 1 10)"/>
      </g>

      <!-- Left Eye (squinting) -->
      <g id="eyes-js" fill="#000000">
        <rect id="left-eye" x="5" y="8.5" width="1" height="1"/>
      </g>

      <!-- Right Arm & Magnifying Glass -->
      <g class="magnifying-glass">
        <rect id="right-arm" x="12" y="9" width="2" height="2" fill="#E8710A"/>

        <!-- The Magnifying Glass -->
        <g id="glass" transform="translate(13.5, 9.5)">
          <!-- Angled Handle from hand to rim -->
          <polygon points="0.5,1.5 1.5,0.5 -1,-2 -2,-1" fill="#795548"/>

          <!-- Large circular-ish Rim -->
          <rect x="-6" y="-5" width="6" height="6" fill="#546E7A" rx="2"/>

          <!-- Magnified Right Eye (Huge!) - Drawn behind the lens -->
          <rect x="-4" y="-3.5" width="2" height="3" fill="#000000"/>

          <!-- Glass Lens (semi-transparent so eye shows through) -->
          <rect x="-5.5" y="-4.5" width="5" height="5" fill="#E0F7FA" rx="1.5" opacity="0.6"/>

          <!-- Glare / Reflection on the glass -->
          <rect x="-4.5" y="-3.5" width="1.5" height="1.5" fill="#FFFFFF" opacity="0.8"/>
        </g>
      </g>

    </g>
  </g>
</svg>
