<svg xmlns="http://www.w3.org/2000/svg" viewBox="-15 -25 45 45" width="500" height="500">
  <defs>
    <style>
      .breathe-anim {
        transform-origin: 7.5px 13px;
        animation: breathe 3.2s infinite ease-in-out;
      }
      .breathe {
        transform-origin: 7.5px 15px;
        animation: breathe-squash 4.5s infinite ease-in-out;
      }
      .shadow-breathe {
        transform-origin: 7.5px 15.5px;
        animation: shadow-pulse 4.5s infinite ease-in-out;
      }
      .z-particle {
        opacity: 0;
      }
      .z1 { animation: float-1 6s infinite ease-in-out; animation-delay: 0s; }
      .z2 { animation: float-2 6s infinite ease-in-out; animation-delay: 2s; }
      .z3 { animation: float-3 6s infinite ease-in-out; animation-delay: 4s; }
      #eyes-js, #body-js, #shadow-js {
        transition: transform 0.2s ease-out;
      }
      #shadow-js {
        transform-origin: 7.5px 15px;
      }
      @keyframes breathe {
        0%, 100% { transform: scale(1, 1) translate(0, 0); }
        50% { transform: scale(1.02, 0.98) translate(0, 0.5px); }
      }
      @keyframes breathe-squash {
        0%, 80%, 100% { transform: scale(1, 1); }
        30%, 40% { transform: scale(1.02, 1.25); }
      }
      @keyframes shadow-pulse {
        0%, 80%, 100% { transform: scaleX(1); opacity: 0.4; }
        30%, 40% { transform: scaleX(1.05); opacity: 0.5; }
      }
      @keyframes float-1 {
        0%   { transform: translate(5px, 8px) scale(0.4); opacity: 0; }
        10%  { opacity: 1; }
        30%  { transform: translate(9px, 4px) scale(0.6); }
        50%  { transform: translate(4px, 0px) scale(0.8); }
        70%  { transform: translate(8px, -4px) scale(1.0); }
        90%  { opacity: 0.8; }
        100% { transform: translate(6px, -8px) scale(1.1); opacity: 0; }
      }
      @keyframes float-2 {
        0%   { transform: translate(8px, 9px) scale(0.3); opacity: 0; }
        10%  { opacity: 1; }
        30%  { transform: translate(5px, 5px) scale(0.5); }
        50%  { transform: translate(9px, 1px) scale(0.7); }
        70%  { transform: translate(6px, -3px) scale(0.9); }
        90%  { opacity: 0.8; }
        100% { transform: translate(8px, -7px) scale(1.0); opacity: 0; }
      }
      @keyframes float-3 {
        0%   { transform: translate(6px, 7px) scale(0.5); opacity: 0; }
        10%  { opacity: 1; }
        30%  { transform: translate(9px, 3px) scale(0.7); }
        50%  { transform: translate(4px, -1px) scale(0.9); }
        70%  { transform: translate(8px, -5px) scale(1.1); }
        90%  { opacity: 0.8; }
        100% { transform: translate(5px, -9px) scale(1.2); opacity: 0; }
      }
    </style>

    <g id="pixel-z">
      <rect x="0" y="0" width="4" height="1" />
      <rect x="2" y="1" width="1" height="1" />
      <rect x="1" y="2" width="1" height="1" />
      <rect x="0" y="3" width="4" height="1" />
    </g>

    <g id="pixel-z-small">
      <rect x="0" y="0" width="3" height="1" />
      <rect x="1" y="1" width="1" height="1" />
      <rect x="0" y="2" width="3" height="1" />
    </g>
  </defs>

  <!-- Shadow -->
  <g id="shadow-js">
    <rect id="ground-shadow" class="shadow-breathe" x="-1" y="15" width="17" height="1" fill="#000000" />
  </g>

  <!-- Floating Zzz Bubbles -->
  <g class="zzz-particles">
    <use href="#pixel-z" class="z-particle z1" fill="#90A4AE" />
    <use href="#pixel-z-small" class="z-particle z2" fill="#B0BEC5" />
    <use href="#pixel-z" class="z-particle z3" fill="#CFD8DC" />
  </g>

  <!-- Sleeping Body -->
  <g id="body-js" class="breathe">
    <g class="breathe-anim">

      <!-- Tail (sticking out left from sploot body) -->
      <rect x="0" y="11" width="2" height="3" fill="#C46A0A"/>
      <rect x="-2" y="11" width="2" height="3" fill="#C46A0A"/>
      <rect x="-1" y="12" width="3" height="3" fill="#C46A0A"/>
      <rect x="-2" y="10" width="2" height="2" fill="#FAEBD7"/>

      <!-- Left Ear -->
      <rect x="3" y="8" width="1" height="2" fill="#E8710A"/>
      <rect x="4" y="8.5" width="1" height="2" fill="#E8710A"/>
      <rect x="5" y="9" width="1.3" height="1" fill="#E8710A"/>
      <polygon points="3,8 4,7 6.5,10" fill="#E8710A"/>
      <polygon points="4,10 4,8.5 5,10" fill="#FAEBD7"/>

      <!-- Right Ear -->
      <rect x="9" y="9" width="1" height="1" fill="#E8710A"/>
      <rect x="10" y="7" width="1" height="3" fill="#E8710A"/>
      <rect x="11" y="8" width="1" height="2" fill="#E8710A"/>
      <polygon points="11,7 11,8 12,8" fill="#E8710A"/>
      <polygon points="8,10 10,10 10,7" fill="#E8710A"/>
      <polygon points="11,8 12,8 11,9" fill="#E8710A"/>
      <polygon points="10,10 11,10 10.5,8" fill="#FAEBD7"/>

      <!-- Legs pointing up from behind (Relaxed Sploot) -->
      <g fill="#E8710A">
        <rect id="outer-left-leg-up" x="3" y="9" width="1" height="1"/>
        <rect id="inner-left-leg-up" x="5" y="9" width="1" height="1"/>
        <rect id="inner-right-leg-up" x="9" y="9" width="1" height="1"/>
        <rect id="outer-right-leg-up" x="11" y="9" width="1" height="1"/>
      </g>

      <!-- Squashed Body Resting on the Floor -->
      <g fill="#E8710A">
        <rect id="torso-sploot" x="1" y="10" width="13" height="5"/>
        <rect id="left-arm-sploot" x="-1" y="13" width="2" height="2"/>
        <rect id="right-arm-sploot" x="14" y="13" width="2" height="2"/>
      </g>

      <!-- Shut Eyes -->
      <g id="eyes-js">
        <g fill="#000000">
          <rect id="left-eye-shut" x="4.5" y="12.5" width="2" height="0.4"/>
          <rect id="right-eye-shut" x="9.5" y="12.5" width="2" height="0.4"/>
        </g>
      </g>

    </g>
  </g>
</svg>
