<svg xmlns="http://www.w3.org/2000/svg" width="500" height="500" viewBox="-15 -25 45 45"
  shape-rendering="crispEdges">
    <style>
      .breathe-anim {
        transform-origin: 7.5px 13px;
        animation: breathe 3.2s infinite ease-in-out;
      }

      #body-js {
        animation: bodyEnter 3.2s cubic-bezier(0.22, 1, 0.36, 1) 1 forwards;
      }

      #left-arm {
        transform-origin: 2px 9px;
        animation: armEnterSleep 3.2s ease-in-out 1 forwards;
      }

      #eyes-js {
        transform-origin: 7.5px 9px;
      }

      #eyes-js, #body-js, #shadow-js {
        transition: transform 0.2s ease-out;
      }
      #shadow-js {
        transform-origin: 7.5px 15px;
      }

      @keyframes breathe {
        0%, 100% { transform: scale(1, 1) translate(0, 0); }
        50% { transform: scale(1.02, 0.98) translate(0, 0.5px); }
      }

      @keyframes bodyEnter {
        0% {
          transform: translate(25px, 0px);
        }
        18% {
          transform: translate(-3px, -0.8px);
        }
        24% {
          transform: translate(1.4px, 0.4px);
        }
        30%,
        100% {
          transform: translate(0px, 0px);
        }
      }

      @keyframes armEnterSleep {
        0%,
        30% {
          transform: scaleX(0.05) rotate(0deg);
        }
        50% {
          transform: scaleX(1) rotate(0deg);
        }
        100% {
          transform: scaleX(1) rotate(0deg);
        }
      }
    </style>

    <g id="shadow-js">
      <rect x="3" y="16" width="9" height="1" fill="#000000" opacity="0.5"/>
    </g>

    <g id="body-js">
      <g class="breathe-anim">
        <g transform="rotate(-12, 7.5, 15)">

          <!-- Tail -->
          <rect x="1" y="7" width="2" height="5" fill="#C46A0A"/>
          <rect x="-1" y="7" width="2" height="5" fill="#C46A0A"/>
          <rect x="0" y="8" width="3" height="5" fill="#C46A0A"/>
          <rect x="-1" y="6" width="2" height="3" fill="#FAEBD7"/>

          <!-- Left Ear -->
          <rect x="3" y="4" width="1" height="2" fill="#E8710A"/>
          <rect x="4" y="4.5" width="1" height="2" fill="#E8710A"/>
          <rect x="5" y="5" width="1.3" height="1" fill="#E8710A"/>
          <polygon points="3,4 4,3 6.5,6" fill="#E8710A"/>
          <polygon points="4,6 4,4.5 5,6" fill="#FAEBD7"/>

          <!-- Right Ear -->
          <rect x="9" y="5" width="1" height="1" fill="#E8710A"/>
          <rect x="10" y="3" width="1" height="3" fill="#E8710A"/>
          <rect x="11" y="4" width="1" height="2" fill="#E8710A"/>
          <polygon points="11,3 11,4 12,4" fill="#E8710A"/>
          <polygon points="8,6 10,6 10,3" fill="#E8710A"/>
          <polygon points="11,4 12,4 11,5" fill="#E8710A"/>
          <polygon points="10,6 11,6 10.5,4" fill="#FAEBD7"/>

          <!-- Torso -->
          <rect x="3" y="6" width="9" height="7" fill="#E8710A"/>

          <!-- Left Arm (enter sleep) -->
          <rect id="left-arm" x="1" y="9" width="3" height="2" fill="#E8710A"/>

          <!-- Right Arm -->
          <rect x="12" y="9" width="2" height="2" fill="#E8710A"/>

          <!-- Eyes closed (sleeping) -->
          <g id="eyes-js" fill="#000000">
            <rect x="4.5" y="8.8" width="2" height="0.4"/>
            <rect x="9.5" y="8.8" width="2" height="0.4"/>
          </g>

          <!-- Legs -->
          <rect x="4" y="13" width="2" height="2" fill="#E8710A"/>
          <rect x="9" y="13" width="2" height="2" fill="#E8710A"/>

        </g>
      </g>
    </g>
  </svg>
