<svg xmlns="http://www.w3.org/2000/svg" viewBox="-15 -25 45 45" width="500" height="500">
  <defs>
    <style>
      .breathe-anim {
        transform-origin: 7.5px 13px;
        animation: breathe 3.2s infinite ease-in-out;
      }
      .body-react {
        animation: body-panic 3.5s 1 ease-in-out forwards;
      }
      .eyes-react {
        animation: eyes-panic 3.5s 1 ease-in-out forwards;
      }
      .eyes-blink {
        transform-origin: 7.5px 9px;
        animation: blink 3s infinite linear;
      }
      .question-pop {
        transform-origin: center;
        animation: question-fade 3.5s 1 ease-in-out forwards;
        opacity: 0;
      }
      .exclamation-pop {
        transform-origin: center;
        animation: excl-fade 3.5s 1 ease-in-out forwards;
        opacity: 0;
      }
      #eyes-js, #body-js, #shadow-js {
        transition: transform 0.2s ease-out;
      }
      #shadow-js {
        transform-origin: 7.5px 15px;
      }
      @keyframes breathe {
        0%, 100% { transform: scale(1, 1) translate(0, 0); }
        50% { transform: scale(1.02, 0.98) translate(0, 0.5px); }
      }
      @keyframes body-panic {
        0%, 4%   { transform: translate(0px, 0px); }
        10%, 18% { transform: translate(-1px, 0px); }
        24%, 32% { transform: translate(1px, 0px); }
        36%      { transform: translate(-1px, 0px); }
        40%      { transform: translate(1px, 0px); }
        46%, 72% { transform: translate(1px, -1px); }
        82%, 100%{ transform: translate(0px, 0px); }
      }
      @keyframes eyes-panic {
        0%, 4%   { transform: translate(0px, 0px); }
        10%, 18% { transform: translate(-2px, 0px); }
        24%, 32% { transform: translate(2px, 0px); }
        36%      { transform: translate(-2px, 0px); }
        40%      { transform: translate(2px, 0px); }
        46%, 72% { transform: translate(3px, -2px); }
        82%, 100%{ transform: translate(0px, 0px); }
      }
      @keyframes blink {
        0%, 20%, 24%, 60%, 64%, 80%, 84%, 100% { transform: scaleY(1); }
        22%, 62%, 82% { transform: scaleY(0.1); }
      }
      @keyframes question-fade {
        0%, 6%   { opacity: 0; transform: translate(-4px, 4px) scale(0.5); }
        12%, 38% { opacity: 1; transform: translate(-4px, 0px) scale(1); }
        44%, 100%{ opacity: 0; transform: translate(-4px, -4px) scale(1.2); }
      }
      @keyframes excl-fade {
        0%, 42%  { opacity: 0; transform: translate(6px, 0px) scale(0.5); }
        48%, 72% { opacity: 1; transform: translate(6px, -4px) scale(1); }
        80%, 100%{ opacity: 0; transform: translate(6px, -8px) scale(1.2); }
      }
    </style>
  </defs>

  <!-- Shadow -->
  <g id="shadow-js">
    <rect x="3" y="15" width="9" height="1" fill="#000000" opacity="0.5"/>
  </g>

  <!-- Body -->
  <g id="body-js" class="body-react">
    <g class="breathe-anim">

      <!-- Tail -->
      <rect x="1" y="7" width="2" height="5" fill="#C46A0A"/>
      <rect x="-1" y="7" width="2" height="5" fill="#C46A0A"/>
      <rect x="0" y="8" width="3" height="5" fill="#C46A0A"/>
      <rect x="-1" y="6" width="2" height="3" fill="#FAEBD7"/>

      <!-- Left Ear -->
      <rect x="3" y="4" width="1" height="2" fill="#E8710A"/>
      <rect x="4" y="4.5" width="1" height="2" fill="#E8710A"/>
      <rect x="5" y="5" width="1.3" height="1" fill="#E8710A"/>
      <polygon points="3,4 4,3 6.5,6" fill="#E8710A"/>
      <polygon points="4,6 4,4.5 5,6" fill="#FAEBD7"/>

      <!-- Right Ear -->
      <rect x="9" y="5" width="1" height="1" fill="#E8710A"/>
      <rect x="10" y="3" width="1" height="3" fill="#E8710A"/>
      <rect x="11" y="4" width="1" height="2" fill="#E8710A"/>
      <polygon points="11,3 11,4 12,4" fill="#E8710A"/>
      <polygon points="8,6 10,6 10,3" fill="#E8710A"/>
      <polygon points="11,4 12,4 11,5" fill="#E8710A"/>
      <polygon points="10,6 11,6 10.5,4" fill="#FAEBD7"/>

      <!-- Torso -->
      <rect x="3" y="6" width="9" height="7" fill="#E8710A"/>

      <!-- Arms -->
      <rect x="1" y="9" width="2" height="2" fill="#E8710A"/>
      <rect x="12" y="9" width="2" height="2" fill="#E8710A"/>

      <!-- Legs -->
      <rect x="4" y="13" width="2" height="2" fill="#E8710A"/>
      <rect x="9" y="13" width="2" height="2" fill="#E8710A"/>

      <!-- Eyes -->
      <g id="eyes-js">
        <g class="eyes-react">
          <g class="eyes-blink" fill="#000000">
            <rect x="5" y="8" width="1" height="2"/>
            <rect x="10" y="8" width="1" height="2"/>
          </g>
        </g>
      </g>

    </g>
  </g>

  <!-- Question Mark (left side) -->
  <g class="question-pop" fill="#FFFFFF">
    <rect x="1" y="0" width="2" height="1"/>
    <rect x="0" y="1" width="1" height="1"/>
    <rect x="3" y="1" width="1" height="2"/>
    <rect x="2" y="3" width="1" height="1"/>
    <rect x="1" y="4" width="1" height="1"/>
    <rect x="1" y="6" width="1" height="1"/>
  </g>

  <!-- Exclamation Mark (right side) -->
  <g class="exclamation-pop" fill="#0082FC">
    <rect x="1" y="0" width="1" height="4"/>
    <rect x="1" y="5" width="1" height="1"/>
  </g>
</svg>
