<svg xmlns="http://www.w3.org/2000/svg" viewBox="-15 -25 45 45" width="500" height="500">
  <defs>
    <style>
      .breathe-anim {
        transform-origin: 7.5px 13px;
        animation: breathe 3.2s infinite ease-in-out;
      }

      .arm-alert {
        transform-origin: 2px 9px;
        animation: alert-arm 4s infinite ease-in-out;
      }

      .eyes-rect {
        transform-origin: 7.5px 9px;
        animation: rect-vis 4s infinite step-end, rect-move 4s infinite ease-in-out;
      }

      .eyes-xmark {
        visibility: hidden;
        animation: xmark-vis 4s infinite step-end;
      }

      .alert-pop {
        animation: alert-flash 4s infinite ease-in-out;
        opacity: 0;
      }

      #eyes-js, #body-js, #shadow-js {
        transition: transform 0.2s ease-out;
      }
      #shadow-js {
        transform-origin: 7.5px 15px;
      }

      @keyframes breathe {
        0%, 100% { transform: scale(1, 1) translate(0, 0); }
        50% { transform: scale(1.02, 0.98) translate(0, 0.5px); }
      }

      @keyframes alert-arm {
        0%, 49% { transform: rotate(0deg); }
        51% { transform: rotate(20deg); }
        60% { transform: rotate(-8deg); }
        64% { transform: rotate(20deg); }
        68% { transform: rotate(-8deg); }
        72% { transform: rotate(20deg); }
        76% { transform: rotate(-8deg); }
        80% { transform: rotate(20deg); }
        84% { transform: rotate(-8deg); }
        88% { transform: rotate(20deg); }
        92%, 100% { transform: rotate(0deg); }
      }

      @keyframes rect-move {
        0%, 16% { transform: translate(0, 0) scaleY(1); }
        22%, 28% { transform: translate(-2px, 0) scaleY(1); }
        34% { transform: translate(0, 0) scaleY(1); }
        36% { transform: translate(0, 0) scaleY(0.1); }
        37%, 39% { transform: translate(0, 0) scaleY(1); }
        41% { transform: translate(0, 0) scaleY(0.1); }
        42%, 100% { transform: translate(0, 0) scaleY(1); }
      }

      @keyframes rect-vis {
        0% { visibility: visible; }
        42% { visibility: hidden; }
        91% { visibility: visible; }
      }

      @keyframes xmark-vis {
        0% { visibility: hidden; }
        42% { visibility: visible; }
        89% { visibility: hidden; }
      }

      @keyframes alert-flash {
        0%, 8% { opacity: 0; transform: scale(0.5); }
        12% { opacity: 1; transform: translate(0, -4px) scale(1.2); }
        20%, 70% { opacity: 1; transform: translate(0, -4px) scale(1); }
        85%, 100% { opacity: 0; transform: translate(0, -6px) scale(0.8); }
      }
    </style>
  </defs>

  <g id="shadow-js">
    <rect x="3" y="15" width="9" height="1" fill="#000000" opacity="0.5"/>
  </g>

  <g transform="rotate(-12, 7.5, 15)">
    <g id="body-js">
      <g class="breathe-anim">

        <!-- Tail -->
        <rect x="1" y="7" width="2" height="5" fill="#C46A0A"/>
        <rect x="-1" y="7" width="2" height="5" fill="#C46A0A"/>
        <rect x="0" y="8" width="3" height="5" fill="#C46A0A"/>
        <rect x="-1" y="6" width="2" height="3" fill="#FAEBD7"/>

        <!-- Left Ear -->
        <rect x="3" y="4" width="1" height="2" fill="#E8710A"/>
        <rect x="4" y="4.5" width="1" height="2" fill="#E8710A"/>
        <rect x="5" y="5" width="1.3" height="1" fill="#E8710A"/>
        <polygon points="3,4 4,3 6.5,6" fill="#E8710A"/>
        <polygon points="4,6 4,4.5 5,6" fill="#FAEBD7"/>

        <!-- Right Ear -->
        <rect x="9" y="5" width="1" height="1" fill="#E8710A"/>
        <rect x="10" y="3" width="1" height="3" fill="#E8710A"/>
        <rect x="11" y="4" width="1" height="2" fill="#E8710A"/>
        <polygon points="11,3 11,4 12,4" fill="#E8710A"/>
        <polygon points="8,6 10,6 10,3" fill="#E8710A"/>
        <polygon points="11,4 12,4 11,5" fill="#E8710A"/>
        <polygon points="10,6 11,6 10.5,4" fill="#FAEBD7"/>

        <!-- Torso -->
        <rect x="3" y="6" width="9" height="7" fill="#E8710A"/>

        <!-- Left Arm (alert shake) -->
        <g class="arm-alert">
          <rect x="0" y="9" width="3" height="2" fill="#E8710A"/>
        </g>

        <!-- Right Arm -->
        <rect x="12" y="9" width="2" height="2" fill="#E8710A"/>

        <!-- Legs -->
        <rect x="4" y="13" width="2" height="2" fill="#E8710A"/>
        <rect x="9" y="13" width="2" height="2" fill="#E8710A"/>

        <!-- Eyes -->
        <g id="eyes-js">
          <g class="eyes-rect" fill="#000000">
            <rect x="5" y="8" width="1" height="2"/>
            <rect x="10" y="8" width="1" height="2"/>
          </g>
          <g class="eyes-xmark" fill="none" stroke="#000000" stroke-width="0.7" stroke-linecap="round" stroke-linejoin="round">
            <polyline points="5,8 6.5,9 5,10"/>
            <polyline points="11,8 9.5,9 11,10"/>
          </g>
        </g>

      </g>
    </g>
  </g>

  <g class="alert-pop" fill="#FF3D00">
    <rect x="-8" y="5" width="2" height="4"/>
    <rect x="-8" y="10" width="2" height="2"/>
  </g>
</svg>
